<svg xmlns="http://www.w3.org/2000/svg" xmlns:xlink="http://www.w3.org/1999/xlink" width="226.917" height="57.048" viewBox="0 0 226.917 57.048">
  <defs>
    <clipPath id="clip-path">
      <rect id="Rectangle_4161" data-name="Rectangle 4161" width="62.056" height="57.048" fill="none"/>
    </clipPath>
    <clipPath id="clip-path-2">
      <rect id="Rectangle_4162" data-name="Rectangle 4162" width="150.917" height="39.993" fill="none"/>
    </clipPath>
  </defs>
  <g id="Group_3166" data-name="Group 3166" transform="translate(-359 -56.476)">
    <g id="Group_3011" data-name="Group 3011" transform="translate(359 56.476)">
      <g id="Group_3010" data-name="Group 3010" clip-path="url(#clip-path)">
        <path id="Path_1" data-name="Path 1" d="M61.8,28.633q-.069-2.46-.138-4.921c-.547-3.6-.8-6.634-2.069-9.335-2.1-4.486-5.779-7.054-9.933-9.519C45.552,2.419,38.731.953,32.971,2.973A2.457,2.457,0,0,0,30.3,1.409c-.732.371-1.465.575-1.655,1.472-1.361-.245-2.793-.573-4.323-.828-3.549-.592-7.552.671-9.841,1.655C7.8,6.584,2.9,11.053.69,18.423A29.3,29.3,0,0,0,0,26.47q0,1.77,0,3.541V33.92q.046,1.425.092,2.851a31.241,31.241,0,0,0,1.2,6.024c2.564,6.573,7.487,10.7,14.025,13.29a17.793,17.793,0,0,0,9.059,1.334c1.55-.262,2.987-.6,4.369-.828.437,1.717,3.721,1.625,4.093-.092l2.621.644,2.805.322c2.956.463,6.578-.645,8.507-1.425,6.567-2.658,11.874-6.951,14.071-13.979A36.449,36.449,0,0,0,61.8,28.633M38.121,5.18a20.706,20.706,0,0,1,5.794.6C50.386,7.693,55.8,12.09,57.8,18.516a18.881,18.881,0,0,1,.782,8.507,21.565,21.565,0,0,1-.92,3.633,22.568,22.568,0,0,1-8.139,10.806l-4.047,2.345-8.461,4.966c-.639.132-2.206-.651-2.759-.828l-.046-.092,6.852-4c6.82-4.117,11.375-5.73,14.439-13.841a16.416,16.416,0,0,0,.966-7.91A19.291,19.291,0,0,0,55.6,18.47a19.216,19.216,0,0,0-3.127-5.1c-1.926-2.393-6.306-4.792-9.749-5.656a14.683,14.683,0,0,0-3.587-.368l-1.564.092L34.81,5.778h-.092c.945-.5,2.3-.189,3.4-.6M31.04,46.107,8.691,33.276a12.877,12.877,0,0,1,1.242-4.185c2.219-5.15,5.959-6.88,10.531-9.611l7.22-4.276L30.9,13.365,53.2,26.2a11.727,11.727,0,0,1-1.1,3.863c-2.316,5.388-5.512,6.862-10.255,9.7L35.5,43.532l-4.46,2.575M3.265,21.642A19.951,19.951,0,0,1,4.093,18.1c2.149-5.534,6.075-9.13,11.4-11.45a21.113,21.113,0,0,1,3.863-1.2l2.207-.276c6.567-.012,9.863,2.286,13.887,4.691l9.657,5.564L52.7,19.758c.514.627.4,2,.644,2.851L31.683,10.192C27.895,7.938,22.764,6.12,17.29,8.261a25.758,25.758,0,0,0-5.242,2.805,16.842,16.842,0,0,0-5.1,5.84c-.474.857-.549,2.052-1.1,2.9L4.047,22.1l-.92,1.471.138-1.931m22.211,32.42a17.1,17.1,0,0,1-9.7-1.2c-6.6-2.823-10.907-7.055-12.416-15.037a17.279,17.279,0,0,1,.276-6.668,21.784,21.784,0,0,1,8.691-13.106L24.878,10.7c1.012.231,1.867.57,2.759.828l.046.092L20.6,15.756C13.843,19.768,8.757,21.845,6.162,30.2A18.154,18.154,0,0,0,6.07,40.312a17.414,17.414,0,0,0,2.575,4.874A19.853,19.853,0,0,0,19.36,51.808a14.667,14.667,0,0,0,3.587.322l1.38-.092,2.851,1.656-1.7.368m31.361-10.53c-2.55,5.013-7.122,8.376-12.922,10.116a16.651,16.651,0,0,1-7.173.506c-3.953-.76-6.533-2.332-9.427-4.047l-8.553-4.921L9.2,39.714a8.2,8.2,0,0,1-.6-2.851l23.958,13.8a16.66,16.66,0,0,0,11.818.644,26.36,26.36,0,0,0,6.852-3.954,14.3,14.3,0,0,0,3.909-5.15l.874-2.437c.717-1.282,1.964-2.41,2.713-3.863.468,2.166-1.189,6.264-1.885,7.633" transform="translate(0 -1.123)" fill="#1a1818"/>
        <path id="Path_2" data-name="Path 2" d="M145.511,2.342A2.342,2.342,0,1,1,143.169,0a2.341,2.341,0,0,1,2.342,2.342" transform="translate(-112.365)" fill="#b07943"/>
        <path id="Path_3" data-name="Path 3" d="M145.513,261.434a2.342,2.342,0,1,1-2.342-2.342,2.341,2.341,0,0,1,2.342,2.342" transform="translate(-112.367 -206.727)" fill="#b07943"/>
        <path id="Path_4" data-name="Path 4" d="M131.418,91.732a2.791,2.791,0,0,1,.966.092c-.052.878-1.861,3.82-2.345,4.644l-4.966,9.473c-.715,1.222-2.328,3.734-2.621,5.1,2.713.129,6.241.42,7.312-1.379.386-.648.86-3.733,1.287-4h.276l.138.092a25.8,25.8,0,0,1-1.012,6.116c-2.587-.065-5.6-.484-8.231-.092l-3.127.092a63.88,63.88,0,0,1,3.955-7.863l2.943-5.7,3.035-5.748c-3.422-.12-7.446-.608-8.921,1.747a9.039,9.039,0,0,0-.965,2.621,5.244,5.244,0,0,1-.322,1.425l-.092.046-.414-.138q.414-3.2.828-6.392h8.415l3.863-.138" transform="translate(-94.4 -73.189)" fill="#b07943" fill-rule="evenodd"/>
      </g>
    </g>
    <g id="Group_3013" data-name="Group 3013" transform="translate(435 65.003)">
      <g id="Group_3012" data-name="Group 3012" transform="translate(0 0.001)" clip-path="url(#clip-path-2)">
        <path id="Path_5" data-name="Path 5" d="M336.938,12.4c-1.066-4.263-9.576-4.463-8.4-9.57.693-3,4.609-2.545,5.956-.488.458.7.443,2.108,1.27,2.441V.2l-.391-.2-.2.683c-1.432.632-2.647-.944-4.59-.586-3.118.576-5.77,4.617-3.32,7.812,2.073,2.7,6.923,2.535,7.421,6.836.37,3.191-3.255,4.665-5.761,3.124-1.591-.978-1.442-2.677-2.246-4.492l-.2-.293H326.2q-.1,2.88-.2,5.761l.1.1h.293l.293-.782.2-.293,3.613,1.074c3.794.694,7.378-2.808,6.445-6.542" transform="translate(-186.171 0)" fill="#b07943" fill-rule="evenodd"/>
        <path id="Path_6" data-name="Path 6" d="M13.378,14.38c-.273,1.03-.244,2.259-.781,3.027-1.082,1.549-5.283,1.223-7.909,1.172V6.47c0-1.567-.237-3.747.2-4.98l1.855-.2c-.033-.13-.065-.26-.1-.391H0c.293.685,1.052.356,1.758.586l.2.2q0,8.4,0,16.8L.1,18.773l-.1.293,13.769.2V14.38h-.391" transform="translate(0 -0.516)" fill="#b07943" fill-rule="evenodd"/>
        <path id="Path_7" data-name="Path 7" d="M57.73,18.45V9.564c1.264-.02,2.932-.151,3.808.293,1.107.508,1.148,1.94,1.367,3.32l.1.2H63.3V5.463c-.546.267-.98,2.561-1.172,3.125a14,14,0,0,1-4.394.488V1.361c2-.555,6.376-.19,7.323.977L66.128,5.17l.293.293h.1q-.147-2.392-.293-4.785l-13.085.1-.1.1v.1a7.356,7.356,0,0,0,1.856.293c.708,1.435.2,10.074.2,12.695q-.049,2.1-.1,4.2c-.306.512-1,.541-1.856.488l-.1.2v.1l13.964.2V14.251l-.391.1c-.869,4.988-3.332,4.208-8.886,4.1" transform="translate(-30.291 -0.387)" fill="#b07943" fill-rule="evenodd"/>
        <path id="Path_8" data-name="Path 8" d="M220.731,18.453q-.049-4.247-.1-8.5c.531-.807,2.949-.319,3.906-.2.908.988.77,1.871,1.367,3.32.187.293.017.164.39.293l.1-7.714-.293-.2c-.609.726-.7,2.471-1.172,3.223a15.89,15.89,0,0,1-4.2.39V1.267c2.032-.013,5.189-.314,6.64.488,1.2.662.957,3.23,2.148,3.711q-.147-2.392-.293-4.785l-13.085.1-.1.2v.1L218,1.364q.049,5.956.1,11.913c0,1.618.257,3.9-.2,5.175l-1.855.2c.332.706,2.43.391,3.418.391l10.546.1V14.254h-.391c-.906,5.074-3.211,4.307-8.886,4.2" transform="translate(-123.377 -0.389)" fill="#b07943" fill-rule="evenodd"/>
        <path id="Path_9" data-name="Path 9" d="M117.414,19.068v-.293a4.237,4.237,0,0,1-2.148-.488q-.049-8.4-.1-16.8c4.743-.89,4.2,1.12,5.468,4.1.172.232.1.167.391.293h.1q-.147-2.49-.293-4.98H106.966q-.1,2.295-.2,4.59l.2.293c.415-.441.292-1.053.488-1.758.631-2.265,2.122-2.579,5.078-2.538q-.049,8.446-.1,16.893a4.987,4.987,0,0,1-2.051.391l-.1.2a41.192,41.192,0,0,0,6.933.1h.2" transform="translate(-60.974 -0.517)" fill="#b07943" fill-rule="evenodd"/>
        <path id="Path_10" data-name="Path 10" d="M161.245.907q-.147,2.343-.293,4.687l.488.1c.722-3.265,1.267-4.3,5.371-4.2q-.049,8.446-.1,16.893a4.37,4.37,0,0,1-2.051.39l-.1.2v.1h7.128v-.1c-.462-.367-1.671-.4-2.148-.684-.908-4.3-.214-11.842-.2-16.7a4.986,4.986,0,0,1,2.441-.1c2.8.573,2.095,1.8,3.125,4.1.171.232.1.168.39.293h.1q-.147-2.49-.293-4.98H161.245" transform="translate(-91.915 -0.518)" fill="#b07943" fill-rule="evenodd"/>
        <path id="Path_11" data-name="Path 11" d="M283.734,17.608v1.074l-.488.1c-1.943-.857-1.425-4.792-2.246-6.738s-2.461-1.877-4.394-2.734h-.2v-.1c2.892-.491,6.575-1.48,5.664-5.273a3.664,3.664,0,0,0-1.27-2.246C278.59.108,273.433.639,269.868.714l-.1.2c.486.335,1.841.074,2.148.586q.049,2.1.1,4.2c0,3.042.632,10.392-.2,12.694l-1.953.2v.293H277v-.1c-.439-.363-1.535-.194-2.051-.489-.709-.549-.39-7.689-.391-8.69,7.161-1.706,1.42,12.249,10.058,9.277q.1-.537.2-1.074a1.261,1.261,0,0,0-.879-.293l-.195.1m-9.081-8.593V1.691l.683-.488c5.9-.224,5.5,7.854-.683,7.812" transform="translate(-154.059 -0.325)" fill="#b07943" fill-rule="evenodd"/>
        <path id="Path_12" data-name="Path 12" d="M7.16,75.031A4.9,4.9,0,0,1,7,77.33l-.492.329a3.585,3.585,0,0,1-2.463-.164c-4.151-1.78-2.076-8.86.821-10.346,2.392.075,3.224,1.389,3.449,3.613.5-.654.506-2.722.492-3.777-1.432.575-2.529-.115-4.762-.164C-3.113,70.8-.229,81.036,8.474,77.33a4.9,4.9,0,0,0,.329-2.3l1.313-.164V74.7l-4.434-.164a3.446,3.446,0,0,0,1.478.493" transform="translate(0 -38.159)" fill="#1a1818" fill-rule="evenodd"/>
        <path id="Path_13" data-name="Path 13" d="M83.689,66.986c.329.369.519.4,1.15.492Q84.921,72.486,85,77.5l-1.15.164-.164.329h4.27v-.164l-1.15-.164q-.082-2.627-.164-5.255l2.3.329c.516.391.615.951.657,1.806l.164.164h.164q.082-2.381.164-4.762l-.164-.164h-.164l-.328,1.642a4.864,4.864,0,0,1-2.792.493V67.479l3.613.164c.888.419,1.182,1.142,1.314,2.3h.164V66.986l-.164-.164-7.882.164" transform="translate(-47.793 -38.16)" fill="#1a1818" fill-rule="evenodd"/>
        <path id="Path_14" data-name="Path 14" d="M176.567,70.272a4.849,4.849,0,0,1,0-2.463l.657-.328,1.478-.164c.742.679,1.313.993,1.478,2.3l.328.164h.164V66.823c-1.233.417-1.635.082-3.449,0-6.289,3.917,1.1,5.709,2.628,8.375q-.082.739-.164,1.478a1.958,1.958,0,0,1-1.1,1.043c1.657-.118,2.94-.666,2.743-3.835a24.57,24.57,0,0,0-4.762-3.613" transform="translate(-99.781 -38.161)" fill="#1a1818" fill-rule="evenodd"/>
        <path id="Path_15" data-name="Path 15" d="M175.3,84.981l-.164-.164h-.164q-.082,1.806-.164,3.613a8.441,8.441,0,0,1,3.032-.4l-.733-.092c-1.18-.465-1.706-1.428-1.806-2.956" transform="translate(-99.828 -48.437)" fill="#1a1818" fill-rule="evenodd"/>
        <path id="Path_16" data-name="Path 16" d="M182.456,92.332c.081-.039.142-.071.214-.106-.257.018-.523.028-.794.034l.581.072" transform="translate(-103.864 -52.668)" fill="#1a1818" fill-rule="evenodd"/>
        <path id="Path_17" data-name="Path 17" d="M49.235,67.7V77.714l-1.15.164c.626.592,2.918.387,4.105.328v-.164l-.985-.164q-.082-5.09-.164-10.181l1.15-.164v-.164L48.085,67.2a1.865,1.865,0,0,0,1.15.492" transform="translate(-27.46 -38.379)" fill="#1a1818" fill-rule="evenodd"/>
        <path id="Path_18" data-name="Path 18" d="M127.717,70.161l.329.164.492-1.97a4.093,4.093,0,0,1,2.628-.657V77.715l-1.15.164-.164.329h4.27v-.164l-1.15-.329q-.082-5.008-.164-10.017l1.97.164c.891.409,1.171.972,1.15,2.3l.329.164v-3.12h-8.375q-.082,1.478-.164,2.956" transform="translate(-72.936 -38.379)" fill="#1a1818" fill-rule="evenodd"/>
      </g>
    </g>
  </g>
</svg>
